<?xml version="1.0" encoding="utf-8"?>
<!-- Generator: Adobe Illustrator 15.0.0, SVG Export Plug-In . SVG Version: 6.00 Build 0)  -->
<!DOCTYPE svg PUBLIC "-//W3C//DTD SVG 1.1//EN" "http://www.w3.org/Graphics/SVG/1.1/DTD/svg11.dtd">
<svg version="1.1" id="Layer_1" xmlns="http://www.w3.org/2000/svg" xmlns:xlink="http://www.w3.org/1999/xlink" x="0px" y="0px"
	 width="1600px" height="1600px" viewBox="0 0 1600 1600" enable-background="new 0 0 1600 1600" xml:space="preserve">
<g id="Ebene_1">
	<g>
		<g>
			
				<linearGradient id="SVGID_1_" gradientUnits="userSpaceOnUse" x1="633.0708" y1="1177.1953" x2="633.0708" y2="1085.2969" gradientTransform="matrix(-0.8503 3.1748 2.1818 0.5843 -432.5637 -1692.6782)">
				<stop  offset="0" style="stop-color:#FFDF30"/>
				<stop  offset="0.1938" style="stop-color:#FED631"/>
				<stop  offset="0.5596" style="stop-color:#FABE33"/>
				<stop  offset="0.6364" style="stop-color:#F9B833"/>
				<stop  offset="0.6549" style="stop-color:#F8B135"/>
				<stop  offset="0.7034" style="stop-color:#F5A437"/>
				<stop  offset="0.7613" style="stop-color:#F39A38"/>
				<stop  offset="0.8373" style="stop-color:#F29439"/>
				<stop  offset="1" style="stop-color:#F29239"/>
			</linearGradient>
			<path fill="url(#SVGID_1_)" d="M1586.541,949.209c25.044,35.739,13.145,80.077-26.436,98.537
				c-39.58,18.461-104.351,48.662-143.931,67.126c-39.581,18.461-62.275-2.566-50.427-46.722l9.794-36.509
				c11.849-44.155,31.232-116.411,43.077-160.569l9.794-36.509c11.849-44.159,42.025-51.046,67.065-15.307
				C1520.518,854.996,1561.505,913.474,1586.541,949.209z"/>
			<path fill="none" stroke="#FFFFFF" d="M1586.541,949.209c25.044,35.739,13.145,80.077-26.436,98.537
				c-39.58,18.461-104.351,48.662-143.931,67.126c-39.581,18.461-62.275-2.566-50.427-46.722l9.794-36.509
				c11.849-44.155,31.232-116.411,43.077-160.569l9.794-36.509c11.849-44.159,42.025-51.046,67.065-15.307
				C1520.518,854.996,1561.505,913.474,1586.541,949.209z"/>
		</g>
		<g>
			
				<linearGradient id="SVGID_2_" gradientUnits="userSpaceOnUse" x1="559.5298" y1="1370.54" x2="559.5298" y2="1277.3838" gradientTransform="matrix(0.6616 3.2194 2.2124 -0.4547 -1834.5125 -556.5598)">
				<stop  offset="0" style="stop-color:#FFDF30"/>
				<stop  offset="0.1938" style="stop-color:#FED631"/>
				<stop  offset="0.5596" style="stop-color:#FABE33"/>
				<stop  offset="0.6364" style="stop-color:#F9B833"/>
				<stop  offset="0.6549" style="stop-color:#F8B135"/>
				<stop  offset="0.7034" style="stop-color:#F5A437"/>
				<stop  offset="0.7613" style="stop-color:#F39A38"/>
				<stop  offset="0.8373" style="stop-color:#F29439"/>
				<stop  offset="1" style="stop-color:#F29239"/>
			</linearGradient>
			<path fill="url(#SVGID_2_)" d="M1538.56,568.838c33.008,20.966,36.262,66.557,11.727,101.498
				c-26.489,34.98-57.769,91.908-69.362,124.962c-11.194,32.775-46.615,25.655-73.666-17.963
				c-7.045-12.124-13.424-24.438-19.137-36.885c-22.777-44.996-39.212-121.988-36.435-167.628
				c0.197-12.601,1.07-25.097,2.617-37.436c6.437-44.674,42.58-62.179,70.412-42.086
				C1453.181,513.582,1504.445,547.735,1538.56,568.838z"/>
			<path fill="none" stroke="#FFFFFF" d="M1538.56,568.838c33.008,20.966,36.262,66.557,11.727,101.498
				c-26.489,34.98-57.769,91.908-69.362,124.962c-11.194,32.775-46.615,25.655-73.666-17.963
				c-7.045-12.124-13.424-24.438-19.137-36.885c-22.777-44.996-39.212-121.988-36.435-167.628
				c0.197-12.601,1.07-25.097,2.617-37.436c6.437-44.674,42.58-62.179,70.412-42.086
				C1453.181,513.582,1504.445,547.735,1538.56,568.838z"/>
		</g>
		<g>
			
				<linearGradient id="SVGID_3_" gradientUnits="userSpaceOnUse" x1="410.7144" y1="1567.6768" x2="410.7144" y2="1475.8066" gradientTransform="matrix(2.0301 2.5847 1.7763 -1.3951 -2205.7407 1413.5358)">
				<stop  offset="0" style="stop-color:#FFDF30"/>
				<stop  offset="0.1938" style="stop-color:#FED631"/>
				<stop  offset="0.5596" style="stop-color:#FABE33"/>
				<stop  offset="0.6364" style="stop-color:#F9B833"/>
				<stop  offset="0.6549" style="stop-color:#F8B135"/>
				<stop  offset="0.7034" style="stop-color:#F5A437"/>
				<stop  offset="0.7613" style="stop-color:#F39A38"/>
				<stop  offset="0.8373" style="stop-color:#F29439"/>
				<stop  offset="1" style="stop-color:#F29239"/>
			</linearGradient>
			<path fill="url(#SVGID_3_)" d="M1361.513,263.51c43.665,1.439,72.069,37.54,63.12,80.228
				c-8.945,42.684-23.59,112.537-32.535,155.229c-8.945,42.688-39.401,48.218-67.666,12.285l-23.44-29.793
				c-28.269-35.929-74.528-94.725-102.797-130.658l-23.443-29.793c-28.269-35.933-15.672-64.151,27.989-62.719
				C1246.398,259.727,1317.849,262.075,1361.513,263.51z"/>
			<path fill="none" stroke="#FFFFFF" d="M1361.513,263.51c43.665,1.439,72.069,37.54,63.12,80.228
				c-8.945,42.684-23.59,112.537-32.535,155.229c-8.945,42.688-39.401,48.218-67.666,12.285l-23.44-29.793
				c-28.269-35.929-74.528-94.725-102.797-130.658l-23.443-29.793c-28.269-35.933-15.672-64.151,27.989-62.719
				C1246.398,259.727,1317.849,262.075,1361.513,263.51z"/>
		</g>
		<g>
			
				<linearGradient id="SVGID_4_" gradientUnits="userSpaceOnUse" x1="221.6616" y1="1793.2383" x2="221.6616" y2="1696.3994" gradientTransform="matrix(3.0089 1.3224 0.9088 -2.0677 -1185.3364 3458.0508)">
				<stop  offset="0" style="stop-color:#FFDF30"/>
				<stop  offset="0.1938" style="stop-color:#FED631"/>
				<stop  offset="0.5596" style="stop-color:#FABE33"/>
				<stop  offset="0.6364" style="stop-color:#F9B833"/>
				<stop  offset="0.6549" style="stop-color:#F8B135"/>
				<stop  offset="0.7034" style="stop-color:#F5A437"/>
				<stop  offset="0.7613" style="stop-color:#F39A38"/>
				<stop  offset="0.8373" style="stop-color:#F29439"/>
				<stop  offset="1" style="stop-color:#F29239"/>
			</linearGradient>
			<path fill="url(#SVGID_4_)" d="M1066.201,50.893c49.06-17.68,79.193-0.802,78.402,40.493
				c-2.241,41.309,17.77,112.624,44.377,153.686c25.111,41.102,13.162,58.37-38.109,41.692
				c-13.918-4.736-27.695-9.529-41.331-14.379c-49.553-17.329-126.197-47.28-170.259-66.163
				c-12.351-5.208-24.554-10.449-36.609-15.711c-43.912-18.937-44.643-51.186-1.367-70.781
				C943.605,99.959,1017.84,68.776,1066.201,50.893z"/>
			<path fill="none" stroke="#FFFFFF" d="M1066.201,50.893c49.06-17.68,79.193-0.802,78.402,40.493
				c-2.241,41.309,17.77,112.624,44.377,153.686c25.111,41.102,13.162,58.37-38.109,41.692
				c-13.918-4.736-27.695-9.529-41.331-14.379c-49.553-17.329-126.197-47.28-170.259-66.163
				c-12.351-5.208-24.554-10.449-36.609-15.711c-43.912-18.937-44.643-51.186-1.367-70.781
				C943.605,99.959,1017.84,68.776,1066.201,50.893z"/>
		</g>
		<g>
			
				<linearGradient id="SVGID_5_" gradientUnits="userSpaceOnUse" x1="67.4858" y1="1948.5313" x2="67.4858" y2="1856.7842" gradientTransform="matrix(3.2553 -0.4526 -0.311 -2.2371 1090.2025 4407.1235)">
				<stop  offset="0" style="stop-color:#FFDF30"/>
				<stop  offset="0.1938" style="stop-color:#FED631"/>
				<stop  offset="0.5596" style="stop-color:#FABE33"/>
				<stop  offset="0.6364" style="stop-color:#F9B833"/>
				<stop  offset="0.6549" style="stop-color:#F8B135"/>
				<stop  offset="0.7034" style="stop-color:#F5A437"/>
				<stop  offset="0.7613" style="stop-color:#F39A38"/>
				<stop  offset="0.8373" style="stop-color:#F29439"/>
				<stop  offset="1" style="stop-color:#F29239"/>
			</linearGradient>
			<path fill="url(#SVGID_5_)" d="M656.699,49.357C679.927,12.418,725.471,6.1,757.914,35.31
				c32.439,29.21,85.526,77.009,117.964,106.227c32.442,29.214,21.933,58.252-23.354,64.534l-37.759,5.244
				c-45.282,6.286-119.389,16.57-164.671,22.853l-37.758,5.241c-45.286,6.286-63.332-18.793-40.103-55.728
				C595.461,146.738,633.47,86.295,656.699,49.357z"/>
			<path fill="none" stroke="#FFFFFF" d="M656.699,49.357C679.927,12.418,725.471,6.1,757.914,35.31
				c32.439,29.21,85.526,77.009,117.964,106.227c32.442,29.214,21.933,58.252-23.354,64.534l-37.759,5.244
				c-45.282,6.286-119.389,16.57-164.671,22.853l-37.758,5.241c-45.286,6.286-63.332-18.793-40.103-55.728
				C595.461,146.738,633.47,86.295,656.699,49.357z"/>
		</g>
		<g>
			
				<linearGradient id="SVGID_6_" gradientUnits="userSpaceOnUse" x1="159.3286" y1="2000.709" x2="159.3286" y2="1907.0264" gradientTransform="matrix(2.5712 -2.0472 -1.4069 -1.7669 2730.0085 4034.5305)">
				<stop  offset="0" style="stop-color:#FFDF30"/>
				<stop  offset="0.1938" style="stop-color:#FED631"/>
				<stop  offset="0.5596" style="stop-color:#FABE33"/>
				<stop  offset="0.6364" style="stop-color:#F9B833"/>
				<stop  offset="0.6549" style="stop-color:#F8B135"/>
				<stop  offset="0.7034" style="stop-color:#F5A437"/>
				<stop  offset="0.7613" style="stop-color:#F39A38"/>
				<stop  offset="0.8373" style="stop-color:#F29439"/>
				<stop  offset="1" style="stop-color:#F29239"/>
			</linearGradient>
			<path fill="url(#SVGID_6_)" d="M288.351,221.514c12.253-44.409,65.021-70.552,103.052-62.021
				c38.599,8.599,102.804,22.813,142.667,31.548c39.523,8.655,35.582,38.463-3.24,67.344c-10.857,7.972-21.385,15.994-31.58,24.041
				c-37.816,29.06-89.417,77.066-114.521,105.324c-7.238,7.861-14.132,15.65-20.687,23.35
				c-21.99,27.313-58.825,16.646-73.458-26.604C274.985,341.214,273.979,265.672,288.351,221.514z"/>
			<path fill="none" stroke="#FFFFFF" d="M288.351,221.514c12.253-44.409,65.021-70.552,103.052-62.021
				c38.599,8.599,102.804,22.813,142.667,31.548c39.523,8.655,35.582,38.463-3.24,67.344c-10.857,7.972-21.385,15.994-31.58,24.041
				c-37.816,29.06-89.417,77.066-114.521,105.324c-7.238,7.861-14.132,15.65-20.687,23.35
				c-21.99,27.313-58.825,16.646-73.458-26.604C274.985,341.214,273.979,265.672,288.351,221.514z"/>
		</g>
		<g>
			
				<linearGradient id="SVGID_7_" gradientUnits="userSpaceOnUse" x1="-49.3433" y1="2004.6006" x2="-49.3433" y2="1912.7188" gradientTransform="matrix(1.8594 -2.7101 -1.8624 -1.2778 3952.0935 2798.8538)">
				<stop  offset="0" style="stop-color:#FFDF30"/>
				<stop  offset="0.1938" style="stop-color:#FED631"/>
				<stop  offset="0.5596" style="stop-color:#FABE33"/>
				<stop  offset="0.6364" style="stop-color:#F9B833"/>
				<stop  offset="0.6549" style="stop-color:#F8B135"/>
				<stop  offset="0.7034" style="stop-color:#F5A437"/>
				<stop  offset="0.7613" style="stop-color:#F39A38"/>
				<stop  offset="0.8373" style="stop-color:#F29439"/>
				<stop  offset="1" style="stop-color:#F29239"/>
			</linearGradient>
			<path fill="url(#SVGID_7_)" d="M118.679,427.448c-11.68-42.029,14.333-79.88,57.815-84.119
				c43.482-4.238,114.631-11.179,158.11-15.421c43.482-4.242,57.869,23.118,31.974,60.793l-21.46,31.226
				c-25.892,37.68-68.271,99.335-94.163,137.008l-21.464,31.233c-25.895,37.672-56.645,34.121-68.325-7.904
				C149.482,538.239,130.363,469.47,118.679,427.448z"/>
			<path fill="none" stroke="#FFFFFF" d="M118.679,427.448c-11.68-42.029,14.333-79.88,57.815-84.119
				c43.482-4.238,114.631-11.179,158.11-15.421c43.482-4.242,57.869,23.118,31.974,60.793l-21.46,31.226
				c-25.892,37.68-68.271,99.335-94.163,137.008l-21.464,31.233c-25.895,37.672-56.645,34.121-68.325-7.904
				C149.482,538.239,130.363,469.47,118.679,427.448z"/>
		</g>
		<g>
			
				<linearGradient id="SVGID_8_" gradientUnits="userSpaceOnUse" x1="228.5581" y1="2137.0801" x2="228.5581" y2="2032.8291" gradientTransform="matrix(0.3592 -3.267 -2.2451 -0.2469 4716.5513 1950.584)">
				<stop  offset="0" style="stop-color:#FFDF30"/>
				<stop  offset="0.1938" style="stop-color:#FED631"/>
				<stop  offset="0.5596" style="stop-color:#FABE33"/>
				<stop  offset="0.6364" style="stop-color:#F9B833"/>
				<stop  offset="0.6549" style="stop-color:#F8B135"/>
				<stop  offset="0.7034" style="stop-color:#F5A437"/>
				<stop  offset="0.7613" style="stop-color:#F39A38"/>
				<stop  offset="0.8373" style="stop-color:#F29439"/>
				<stop  offset="1" style="stop-color:#F29239"/>
			</linearGradient>
			<path fill="url(#SVGID_8_)" d="M20.886,734.995c-34.218-32.529-25.795-80.321,16.134-104.752
				c40.601-24.714,112.945-63.567,160.673-85.833c48.322-22.058,63.074-6.175,41.96,37.858
				c-5.563,12.207-10.456,24.589-14.68,37.089c-17.383,45.24-24.939,122.12-16.742,167.367c1.689,12.504,4.052,24.886,7.091,37.093
				c12.317,43.911-9.007,54.536-54.171,25.236C116.474,819.55,53.289,767.706,20.886,734.995z"/>
			<path fill="none" stroke="#FFFFFF" d="M20.886,734.995c-34.218-32.529-25.795-80.321,16.134-104.752
				c40.601-24.714,112.945-63.567,160.673-85.833c48.322-22.058,63.074-6.175,41.96,37.858
				c-5.563,12.207-10.456,24.589-14.68,37.089c-17.383,45.24-24.939,122.12-16.742,167.367c1.689,12.504,4.052,24.886,7.091,37.093
				c12.317,43.911-9.007,54.536-54.171,25.236C116.474,819.55,53.289,767.706,20.886,734.995z"/>
		</g>
		<g>
			
				<linearGradient id="SVGID_9_" gradientUnits="userSpaceOnUse" x1="63.396" y1="1822.8564" x2="63.396" y2="1730.958" gradientTransform="matrix(-0.7894 -3.1904 -2.1925 0.5425 4065.95 232.9068)">
				<stop  offset="0" style="stop-color:#FFDF30"/>
				<stop  offset="0.1938" style="stop-color:#FED631"/>
				<stop  offset="0.5596" style="stop-color:#FABE33"/>
				<stop  offset="0.6364" style="stop-color:#F9B833"/>
				<stop  offset="0.6549" style="stop-color:#F8B135"/>
				<stop  offset="0.7034" style="stop-color:#F5A437"/>
				<stop  offset="0.7613" style="stop-color:#F39A38"/>
				<stop  offset="0.8373" style="stop-color:#F29439"/>
				<stop  offset="1" style="stop-color:#F29239"/>
			</linearGradient>
			<path fill="url(#SVGID_9_)" d="M55.898,1062.981c-39.215-19.212-50.262-63.775-24.542-99.027
				c25.72-35.257,67.81-92.939,93.529-128.195c25.724-35.252,55.764-27.789,66.761,16.585l9.096,36.691
				c10.997,44.373,28.999,116.994,39.996,161.364l9.089,36.688c10.997,44.377-12.089,64.968-51.311,45.752
				C159.293,1113.623,95.121,1082.19,55.898,1062.981z"/>
			<path fill="none" stroke="#FFFFFF" d="M55.898,1062.981c-39.215-19.212-50.262-63.775-24.542-99.027
				c25.72-35.257,67.81-92.939,93.529-128.195c25.724-35.252,55.764-27.789,66.761,16.585l9.096,36.691
				c10.997,44.373,28.999,116.994,39.996,161.364l9.089,36.688c10.997,44.377-12.089,64.968-51.311,45.752
				C159.293,1113.623,95.121,1082.19,55.898,1062.981z"/>
		</g>
		<g>
			
				<linearGradient id="SVGID_10_" gradientUnits="userSpaceOnUse" x1="261.7803" y1="1426.9912" x2="261.7803" y2="1333.2002" gradientTransform="matrix(-2.5295 -2.0985 -1.4421 1.7383 2988.9868 -519.5901)">
				<stop  offset="0" style="stop-color:#FFDF30"/>
				<stop  offset="0.1938" style="stop-color:#FED631"/>
				<stop  offset="0.5596" style="stop-color:#FABE33"/>
				<stop  offset="0.6364" style="stop-color:#F9B833"/>
				<stop  offset="0.6549" style="stop-color:#F8B135"/>
				<stop  offset="0.7034" style="stop-color:#F5A437"/>
				<stop  offset="0.7613" style="stop-color:#F39A38"/>
				<stop  offset="0.8373" style="stop-color:#F29439"/>
				<stop  offset="1" style="stop-color:#F29239"/>
			</linearGradient>
			<path fill="url(#SVGID_10_)" d="M335.073,1425.988c-38.643,7.739-91.092-19.137-102.243-63.625
				c-13.316-44.23-10.639-119.79,5.953-163.05c15.661-43.21,52.374-53.349,73.522-25.341c6.329,7.894,13.009,15.883,20.057,23.944
				c24.359,28.988,75.23,78.237,112.906,108.002c10.138,8.244,20.626,16.456,31.461,24.614c38.757,29.561,42.641,59.11,2.721,66.929
				C439.234,1405.344,374.26,1418.195,335.073,1425.988z"/>
			<path fill="none" stroke="#FFFFFF" d="M335.073,1425.988c-38.643,7.739-91.092-19.137-102.243-63.625
				c-13.316-44.23-10.639-119.79,5.953-163.05c15.661-43.21,52.374-53.349,73.522-25.341c6.329,7.894,13.009,15.883,20.057,23.944
				c24.359,28.988,75.23,78.237,112.906,108.002c10.138,8.244,20.626,16.456,31.461,24.614c38.757,29.561,42.641,59.11,2.721,66.929
				C439.234,1405.344,374.26,1418.195,335.073,1425.988z"/>
		</g>
		<g>
			
				<linearGradient id="SVGID_11_" gradientUnits="userSpaceOnUse" x1="738.689" y1="2111.2549" x2="738.689" y2="2019.5029" gradientTransform="matrix(-3.2434 -0.5316 -0.3653 2.2289 3830.5134 -2731.6135)">
				<stop  offset="0" style="stop-color:#FFDF30"/>
				<stop  offset="0.1938" style="stop-color:#FED631"/>
				<stop  offset="0.5596" style="stop-color:#FABE33"/>
				<stop  offset="0.6364" style="stop-color:#F9B833"/>
				<stop  offset="0.6549" style="stop-color:#F8B135"/>
				<stop  offset="0.7034" style="stop-color:#F5A437"/>
				<stop  offset="0.7613" style="stop-color:#F39A38"/>
				<stop  offset="0.8373" style="stop-color:#F29439"/>
				<stop  offset="1" style="stop-color:#F29239"/>
			</linearGradient>
			<path fill="url(#SVGID_11_)" d="M717.836,1565.004c-33.145,28.416-78.52,20.988-100.843-16.506
				c-22.319-37.493-58.846-98.838-81.169-136.327c-22.319-37.49-3.669-62.122,41.449-54.744l37.619,6.157
				c45.122,7.381,118.952,19.463,164.07,26.84l37.619,6.157c45.118,7.382,54.919,36.67,21.774,65.086
				C805.212,1490.082,750.976,1536.586,717.836,1565.004z"/>
			<path fill="none" stroke="#FFFFFF" d="M717.836,1565.004c-33.145,28.416-78.52,20.988-100.843-16.506
				c-22.319-37.493-58.846-98.838-81.169-136.327c-22.319-37.49-3.669-62.122,41.449-54.744l37.619,6.157
				c45.122,7.381,118.952,19.463,164.07,26.84l37.619,6.157c45.118,7.382,54.919,36.67,21.774,65.086
				C805.212,1490.082,750.976,1536.586,717.836,1565.004z"/>
		</g>
		<g>
			
				<linearGradient id="SVGID_12_" gradientUnits="userSpaceOnUse" x1="604.2432" y1="1328.3164" x2="604.2432" y2="1232.3096" gradientTransform="matrix(-3.0931 1.1112 0.7636 2.1256 1907.0143 -1935.1893)">
				<stop  offset="0" style="stop-color:#FFDF30"/>
				<stop  offset="0.1938" style="stop-color:#FED631"/>
				<stop  offset="0.5596" style="stop-color:#FABE33"/>
				<stop  offset="0.6364" style="stop-color:#F9B833"/>
				<stop  offset="0.6549" style="stop-color:#F8B135"/>
				<stop  offset="0.7034" style="stop-color:#F5A437"/>
				<stop  offset="0.7613" style="stop-color:#F39A38"/>
				<stop  offset="0.8373" style="stop-color:#F29439"/>
				<stop  offset="1" style="stop-color:#F29239"/>
			</linearGradient>
			<path fill="url(#SVGID_12_)" d="M1090.747,1514.742c-1.689,40.232-34.647,54.414-83.398,34.14
				c-48.09-20.497-120.224-56.423-160.219-79.114c-41.152-22.556-35.718-54.586,9.994-70.322
				c12.571-4.386,25.251-8.753,38.037-13.091c45.724-15.715,123.803-40.598,173.471-55.045c13.707-4.041,27.517-8.04,41.428-11.995
				c51.067-13.929,60.876,4.854,33.792,45.175C1115.146,1404.722,1091.202,1474.457,1090.747,1514.742z"/>
			<path fill="none" stroke="#FFFFFF" d="M1090.747,1514.742c-1.689,40.232-34.647,54.414-83.398,34.14
				c-48.09-20.497-120.224-56.423-160.219-79.114c-41.152-22.556-35.718-54.586,9.994-70.322
				c12.571-4.386,25.251-8.753,38.037-13.091c45.724-15.715,123.803-40.598,173.471-55.045c13.707-4.041,27.517-8.04,41.428-11.995
				c51.067-13.929,60.876,4.854,33.792,45.175C1115.146,1404.722,1091.202,1474.457,1090.747,1514.742z"/>
		</g>
		<g>
			
				<linearGradient id="SVGID_13_" gradientUnits="userSpaceOnUse" x1="639.5518" y1="1733.6719" x2="639.5518" y2="1641.8096" gradientTransform="matrix(-2.2064 2.4359 1.674 1.5163 -85.6981 -2834.05)">
				<stop  offset="0" style="stop-color:#FFDF30"/>
				<stop  offset="0.1938" style="stop-color:#FED631"/>
				<stop  offset="0.5596" style="stop-color:#FABE33"/>
				<stop  offset="0.6364" style="stop-color:#F9B833"/>
				<stop  offset="0.6549" style="stop-color:#F8B135"/>
				<stop  offset="0.7034" style="stop-color:#F5A437"/>
				<stop  offset="0.7613" style="stop-color:#F39A38"/>
				<stop  offset="0.8373" style="stop-color:#F29439"/>
				<stop  offset="1" style="stop-color:#F29239"/>
			</linearGradient>
			<path fill="url(#SVGID_13_)" d="M1421.176,1297.865c5.928,43.21-24.947,77.234-68.602,75.613
				c-43.657-1.626-115.097-4.285-158.754-5.907c-43.658-1.625-54.243-30.659-23.522-64.52l25.487-28.093
				c30.721-33.857,80.99-89.263,111.714-123.123l25.491-28.097c30.721-33.856,60.707-26.207,66.636,17.003
				C1405.55,1183.953,1415.247,1254.658,1421.176,1297.865z"/>
			<path fill="none" stroke="#FFFFFF" d="M1421.176,1297.865c5.928,43.21-24.947,77.234-68.602,75.613
				c-43.657-1.626-115.097-4.285-158.754-5.907c-43.658-1.625-54.243-30.659-23.522-64.52l25.487-28.093
				c30.721-33.857,80.99-89.263,111.714-123.123l25.491-28.097c30.721-33.856,60.707-26.207,66.636,17.003
				C1405.55,1183.953,1415.247,1254.658,1421.176,1297.865z"/>
		</g>
		
			<radialGradient id="SVGID_14_" cx="1184.4365" cy="-58.124" r="1280.8899" fx="1134.3762" fy="-52.9456" gradientTransform="matrix(0.4971 0 0 -0.4962 352.0614 627.788)" gradientUnits="userSpaceOnUse">
			<stop  offset="0.43" style="stop-color:#FFD237"/>
			<stop  offset="0.5311" style="stop-color:#FECC36"/>
			<stop  offset="0.6959" style="stop-color:#FABB31"/>
			<stop  offset="0.9028" style="stop-color:#F49D2A"/>
			<stop  offset="1" style="stop-color:#F18C27"/>
		</radialGradient>
		<ellipse fill="url(#SVGID_14_)" cx="804.217" cy="803.93" rx="636.683" ry="635.596"/>
		
			<radialGradient id="SVGID_15_" cx="522.7324" cy="786.8716" r="186.7971" fx="515.4321" fy="787.6271" gradientTransform="matrix(1.116 0 0 -1.1459 38.0683 1563.3035)" gradientUnits="userSpaceOnUse">
			<stop  offset="0" style="stop-color:#FFFFFF"/>
			<stop  offset="0.4889" style="stop-color:#FDFDFD"/>
			<stop  offset="0.665" style="stop-color:#F6F6F6"/>
			<stop  offset="0.7905" style="stop-color:#EBEBEB"/>
			<stop  offset="0.892" style="stop-color:#DADADA"/>
			<stop  offset="0.9779" style="stop-color:#C4C4C4"/>
			<stop  offset="1" style="stop-color:#BDBDBD"/>
		</radialGradient>
		<ellipse fill="url(#SVGID_15_)" stroke="#FFFFFF" cx="621.436" cy="656.67" rx="208.591" ry="214.173"/>
		
			<radialGradient id="SVGID_16_" cx="570.0898" cy="777.21" r="101.2786" fx="566.1317" fy="777.6194" gradientTransform="matrix(1.116 0 0 -1.1459 38.0683 1563.3035)" gradientUnits="userSpaceOnUse">
			<stop  offset="0" style="stop-color:#74C2B3"/>
			<stop  offset="0.4155" style="stop-color:#73C1B3"/>
			<stop  offset="0.5651" style="stop-color:#70BDB4"/>
			<stop  offset="0.6717" style="stop-color:#6BB6B5"/>
			<stop  offset="0.758" style="stop-color:#63ADB6"/>
			<stop  offset="0.832" style="stop-color:#5BA0B7"/>
			<stop  offset="0.8973" style="stop-color:#5190B5"/>
			<stop  offset="0.955" style="stop-color:#477CB2"/>
			<stop  offset="1" style="stop-color:#3F69AC"/>
		</radialGradient>
		<path fill="url(#SVGID_16_)" stroke="#FFFFFF" d="M670.201,559.076c63.532,0,115.036,51.533,115.036,115.1
			c0,63.568-51.504,115.097-115.036,115.097c-63.536,0-115.04-51.529-115.04-115.097
			C555.162,610.609,606.666,559.076,670.201,559.076z"/>
		<path stroke="#FFFFFF" d="M670.201,608.998c34.368,0,62.229,29.181,62.229,65.178s-27.861,65.179-62.229,65.179
			c-34.372,0-62.232-29.182-62.232-65.179S635.829,608.998,670.201,608.998z"/>
		<path fill="#FFFFFF" stroke="#FFFFFF" d="M731.131,656.665c18.893,0,34.204,17.1,34.204,38.191
			c0,21.095-15.311,38.191-34.204,38.191c-18.89,0-34.2-17.096-34.2-38.191C696.931,673.765,712.241,656.665,731.131,656.665z"/>
		<ellipse fill="#FFFFFF" stroke="#FFFFFF" cx="696.923" cy="600.439" rx="43.636" ry="48.411"/>
		
			<radialGradient id="SVGID_17_" cx="919.8359" cy="872.0391" r="186.7988" fx="912.5352" fy="872.7944" gradientTransform="matrix(1.116 0 0 -1.1459 38.0683 1563.3035)" gradientUnits="userSpaceOnUse">
			<stop  offset="0" style="stop-color:#FFFFFF"/>
			<stop  offset="0.4889" style="stop-color:#FDFDFD"/>
			<stop  offset="0.665" style="stop-color:#F6F6F6"/>
			<stop  offset="0.7905" style="stop-color:#EBEBEB"/>
			<stop  offset="0.892" style="stop-color:#DADADA"/>
			<stop  offset="0.9779" style="stop-color:#C4C4C4"/>
			<stop  offset="1" style="stop-color:#BDBDBD"/>
		</radialGradient>
		<path fill="url(#SVGID_17_)" stroke="#FFFFFF" d="M1064.605,344.897c115.2,0,208.586,95.892,208.586,214.175
			c0,118.287-93.386,214.179-208.586,214.179c-115.197,0-208.588-95.892-208.588-214.179
			C856.018,440.79,949.408,344.897,1064.605,344.897z"/>
		
			<radialGradient id="SVGID_18_" cx="967.1982" cy="862.3809" r="101.2799" fx="963.2403" fy="862.7903" gradientTransform="matrix(1.116 0 0 -1.1459 38.0683 1563.3035)" gradientUnits="userSpaceOnUse">
			<stop  offset="0" style="stop-color:#74C2B3"/>
			<stop  offset="0.4155" style="stop-color:#73C1B3"/>
			<stop  offset="0.5651" style="stop-color:#70BDB4"/>
			<stop  offset="0.6717" style="stop-color:#6BB6B5"/>
			<stop  offset="0.758" style="stop-color:#63ADB6"/>
			<stop  offset="0.832" style="stop-color:#5BA0B7"/>
			<stop  offset="0.8973" style="stop-color:#5190B5"/>
			<stop  offset="0.955" style="stop-color:#477CB2"/>
			<stop  offset="1" style="stop-color:#3F69AC"/>
		</radialGradient>
		<path fill="url(#SVGID_18_)" stroke="#FFFFFF" d="M1113.367,461.48c63.535,0,115.036,51.537,115.036,115.104
			c0,63.568-51.501,115.104-115.036,115.104c-63.532,0-115.036-51.536-115.036-115.104
			C998.331,513.017,1049.835,461.48,1113.367,461.48z"/>
		<ellipse stroke="#FFFFFF" cx="1113.367" cy="576.584" rx="62.232" ry="65.182"/>
		<path fill="#FFFFFF" stroke="#FFFFFF" d="M1174.3,559.072c18.891,0,34.204,17.1,34.204,38.195
			c0,21.091-15.313,38.188-34.204,38.188c-18.89,0-34.203-17.096-34.203-38.188C1140.097,576.172,1155.41,559.072,1174.3,559.072z"
			/>
		<ellipse fill="#FFFFFF" stroke="#FFFFFF" cx="1140.097" cy="502.847" rx="43.636" ry="48.408"/>
		
			<linearGradient id="SVGID_19_" gradientUnits="userSpaceOnUse" x1="1013.3535" y1="634.7954" x2="1013.3535" y2="856.6245" gradientTransform="matrix(1.1826 -0.2666 -0.3321 -1.4733 -15.2932 2452.6846)">
			<stop  offset="0" style="stop-color:#D07F0D"/>
			<stop  offset="0.1464" style="stop-color:#C77A10"/>
			<stop  offset="0.3852" style="stop-color:#AD6D15"/>
			<stop  offset="0.6866" style="stop-color:#865818"/>
			<stop  offset="1" style="stop-color:#5B4117"/>
		</linearGradient>
		<path fill="url(#SVGID_19_)" stroke="#FFFFFF" d="M926.896,1046.34c-147.654,33.227-288.851,12.446-381.152-46.324
			c84.462,178.729,257.797,285.241,426.636,247.243c168.92-38.016,279.736-208.615,279.105-406.349
			C1193.438,933.67,1074.725,1013.07,926.896,1046.34z"/>
	</g>
</g>
</svg>
